<mxfile host="app.diagrams.net" modified="2022-12-09T02:40:36.098Z" agent="5.0 (Windows NT 10.0; Win64; x64) AppleWebKit/537.36 (KHTML, like Gecko) Chrome/107.0.0.0 Safari/537.36 Edg/107.0.1418.62" version="20.6.0" etag="hq57wZCgisFOEfPARHWY" type="github">
  <diagram id="6VGzWPYurVuNuBiJHSlM" name="第 1 页">
    <mxGraphModel dx="1422" dy="762" grid="1" gridSize="10" guides="1" tooltips="1" connect="1" arrows="1" fold="1" page="1" pageScale="1" pageWidth="827" pageHeight="1169" math="0" shadow="0">
      <root>
        <mxCell id="0" />
        <mxCell id="1" parent="0" />
        <mxCell id="4LrZ7UISD7c1I4nNWBPo-3" style="edgeStyle=orthogonalEdgeStyle;rounded=0;orthogonalLoop=1;jettySize=auto;html=1;exitX=0.5;exitY=1;exitDx=0;exitDy=0;entryX=0.5;entryY=0;entryDx=0;entryDy=0;entryPerimeter=0;" edge="1" parent="1" source="4LrZ7UISD7c1I4nNWBPo-1">
          <mxGeometry relative="1" as="geometry">
            <mxPoint x="440" y="120" as="targetPoint" />
          </mxGeometry>
        </mxCell>
        <mxCell id="4LrZ7UISD7c1I4nNWBPo-1" value="单击策略" style="rounded=0;whiteSpace=wrap;html=1;" vertex="1" parent="1">
          <mxGeometry x="380" y="30" width="120" height="60" as="geometry" />
        </mxCell>
        <mxCell id="4LrZ7UISD7c1I4nNWBPo-13" value="" style="edgeStyle=orthogonalEdgeStyle;rounded=0;orthogonalLoop=1;jettySize=auto;html=1;" edge="1" parent="1" source="4LrZ7UISD7c1I4nNWBPo-11">
          <mxGeometry relative="1" as="geometry">
            <mxPoint x="440" y="260" as="targetPoint" />
          </mxGeometry>
        </mxCell>
        <mxCell id="4LrZ7UISD7c1I4nNWBPo-11" value="读取策略文件指定路径下的参数（Json文件）" style="rounded=0;whiteSpace=wrap;html=1;" vertex="1" parent="1">
          <mxGeometry x="380" y="120" width="120" height="60" as="geometry" />
        </mxCell>
        <mxCell id="4LrZ7UISD7c1I4nNWBPo-15" value="JSON文件" style="rounded=0;whiteSpace=wrap;html=1;" vertex="1" parent="1">
          <mxGeometry x="380" y="260" width="120" height="60" as="geometry" />
        </mxCell>
        <mxCell id="4LrZ7UISD7c1I4nNWBPo-16" value="读&lt;br&gt;取" style="text;html=1;strokeColor=none;fillColor=none;align=center;verticalAlign=middle;whiteSpace=wrap;overflow=hidden;" vertex="1" parent="1">
          <mxGeometry x="414" y="200" width="80" height="30" as="geometry" />
        </mxCell>
        <mxCell id="4LrZ7UISD7c1I4nNWBPo-19" value="" style="edgeStyle=orthogonalEdgeStyle;rounded=0;orthogonalLoop=1;jettySize=auto;html=1;" edge="1" parent="1" source="4LrZ7UISD7c1I4nNWBPo-17" target="4LrZ7UISD7c1I4nNWBPo-18">
          <mxGeometry relative="1" as="geometry" />
        </mxCell>
        <mxCell id="4LrZ7UISD7c1I4nNWBPo-17" value="修改参数" style="rounded=0;whiteSpace=wrap;html=1;" vertex="1" parent="1">
          <mxGeometry x="70" y="30" width="120" height="60" as="geometry" />
        </mxCell>
        <mxCell id="4LrZ7UISD7c1I4nNWBPo-21" value="" style="edgeStyle=orthogonalEdgeStyle;rounded=0;orthogonalLoop=1;jettySize=auto;html=1;" edge="1" parent="1" source="4LrZ7UISD7c1I4nNWBPo-18" target="4LrZ7UISD7c1I4nNWBPo-20">
          <mxGeometry relative="1" as="geometry" />
        </mxCell>
        <mxCell id="4LrZ7UISD7c1I4nNWBPo-18" value="点击开始回测" style="whiteSpace=wrap;html=1;rounded=0;" vertex="1" parent="1">
          <mxGeometry x="70" y="180" width="120" height="60" as="geometry" />
        </mxCell>
        <mxCell id="4LrZ7UISD7c1I4nNWBPo-22" style="edgeStyle=orthogonalEdgeStyle;rounded=0;orthogonalLoop=1;jettySize=auto;html=1;entryX=0;entryY=0.5;entryDx=0;entryDy=0;" edge="1" parent="1" target="4LrZ7UISD7c1I4nNWBPo-15">
          <mxGeometry relative="1" as="geometry">
            <mxPoint x="130" y="280" as="sourcePoint" />
            <Array as="points">
              <mxPoint x="130" y="290" />
            </Array>
          </mxGeometry>
        </mxCell>
        <mxCell id="4LrZ7UISD7c1I4nNWBPo-20" value="参数更新至Manager" style="whiteSpace=wrap;html=1;rounded=0;" vertex="1" parent="1">
          <mxGeometry x="70" y="320" width="120" height="60" as="geometry" />
        </mxCell>
        <mxCell id="4LrZ7UISD7c1I4nNWBPo-24" value="参数更新同步写入至JSON文件" style="text;html=1;strokeColor=none;fillColor=none;align=center;verticalAlign=middle;whiteSpace=wrap;overflow=hidden;" vertex="1" parent="1">
          <mxGeometry x="180" y="270" width="180" height="20" as="geometry" />
        </mxCell>
      </root>
    </mxGraphModel>
  </diagram>
</mxfile>
